HIERARCHY
ROOT Hips
{
  OFFSET 265.287 66.7526 -254.649
  CHANNELS 6 Xposition Yposition Zposition Zrotation Xrotation Yrotation
  JOINT LeftUpLeg
  {
    OFFSET 8.64259 1.95398 -2.38835
    CHANNELS 3 Zrotation Xrotation Yrotation
    JOINT LeftLeg
    {
      OFFSET 43.7702 0 0
      CHANNELS 3 Zrotation Xrotation Yrotation
      JOINT LeftFoot
      {
        OFFSET 40.6238 0 0
        CHANNELS 3 Zrotation Xrotation Yrotation
        JOINT LeftToeBase
        {
          OFFSET 12.7242 0 0
          CHANNELS 3 Zrotation Xrotation Yrotation
          End Site
          {
            OFFSET 0 0 0
          }
        }
      }
    }
  }
  JOINT RightUpLeg
  {
    OFFSET -8.2249 1.95398 -2.59336
    CHANNELS 3 Zrotation Xrotation Yrotation
    JOINT RightLeg
    {
      OFFSET 43.5653 0 0
      CHANNELS 3 Zrotation Xrotation Yrotation
      JOINT RightFoot
      {
        OFFSET 40.6238 0 0
        CHANNELS 3 Zrotation Xrotation Yrotation
        JOINT RightToeBase
        {
          OFFSET 12.7242 0 0
          CHANNELS 3 Zrotation Xrotation Yrotation
          End Site
          {
            OFFSET 0 0 0
          }
        }
      }
    }
  }
  JOINT Spine
  {
    OFFSET 0.165834 0.87714 6.61349
    CHANNELS 3 Zrotation Xrotation Yrotation
    JOINT Spine1
    {
      OFFSET 7.38963 1.71661e-005 0
      CHANNELS 3 Zrotation Xrotation Yrotation
      JOINT Spine2
      {
        OFFSET 11.9445 1.14441e-005 0
        CHANNELS 3 Zrotation Xrotation Yrotation
        JOINT Spine3
        {
          OFFSET 14.7254 4.19617e-005 0
          CHANNELS 3 Zrotation Xrotation Yrotation
          JOINT Spine4
          {
            OFFSET 10.9679 0 0
            CHANNELS 3 Zrotation Xrotation Yrotation
            JOINT RightShoulder
            {
              OFFSET 2.46616 -1.6653 3.69651
              CHANNELS 3 Zrotation Xrotation Yrotation
              JOINT RightArm
              {
                OFFSET 13.0012 0 0
                CHANNELS 3 Zrotation Xrotation Yrotation
                JOINT RightForeArm
                {
                  OFFSET 28.7848 1.52588e-005 0
                  CHANNELS 3 Zrotation Xrotation Yrotation
                  JOINT RightHand
                  {
                    OFFSET 26.5688 1.52588e-005 0
                    CHANNELS 3 Zrotation Xrotation Yrotation
                    End Site
                    {
                      OFFSET 0 0 0
                    }
                  }
                }
              }
            }
            JOINT LeftShoulder
            {
              OFFSET 2.38034 -1.29275 -3.7523
              CHANNELS 3 Zrotation Xrotation Yrotation
              JOINT LeftArm
              {
                OFFSET 16.3182 6.10351e-005 0
                CHANNELS 3 Zrotation Xrotation Yrotation
                JOINT LeftForeArm
                {
                  OFFSET 27.0901 0 0
                  CHANNELS 3 Zrotation Xrotation Yrotation
                  JOINT LeftHand
                  {
                    OFFSET 24.5451 1.52588e-005 0
                    CHANNELS 3 Zrotation Xrotation Yrotation
                    End Site
                    {
                      OFFSET 0 0 0
                    }
                  }
                }
              }
            }
            JOINT Neck
            {
              OFFSET 5.0226 -0.0266342 0
              CHANNELS 3 Zrotation Xrotation Yrotation
              JOINT Head
              {
                OFFSET 6.69364 2.86102e-005 0
                CHANNELS 3 Zrotation Xrotation Yrotation
                End Site
                {
                  OFFSET 0 0 0
                }
              }
            }
          }
        }
      }
    }
  }
}
MOTION
Frames:	9
Frame Time:	0.0416667
17.612 77.9674 -15.2567 110.267 -35.6362 116.068 178.41 39.1391 84.0902 -73.2294 17.6193 2.32634 59.2193 4.17003 23.0814 32.8239 -0.911121 -4.493 177.58 33.8582 72.3251 -71.5901 -11.9224 -4.34967 53.4393 4.97156 20.295 52.1779 -3.45849 -0.898059 -0.607195 10.4069 -90.4189 6.05462 -1.38932 -0.781523 -5.61578 -1.42238 -0.719619 -28.1531 -1.09025 -1.16296 -8.14042 -1.09023 -1.16295 101.747 -44.37 -82.8629 25.0784 -9.8592 20.5537 -2.45776 -0.309444 -50.7034 -7.65206 -0.116258 -3.64601 -85.3548 -45.5238 84.8515 -0.553025 0.559062 1.06487 -4.1512 -20.3567 -18.9659 16.116 -0.731994 -8.30965 -1.2311 8.50262 -15.8281 -9.88617 8.68175 31.8136 
16.9659 76.7529 -1.99604 102.006 -20.6207 111.904 174.891 42.0094 90.6974 -85.2325 23.9289 2.84209 68.3248 11.1396 27.8486 34.3218 -1.26924 -7.13208 177.587 23.2005 72.9567 -34.9764 -21.5101 -5.62327 44.7176 8.33805 26.4199 71.3417 -7.10177 -3.38733 -0.802864 10.7621 -91.2168 5.31958 -2.10907 -2.3407 -6.3517 -2.21002 -2.24565 -28.8755 -1.30848 -2.866 -8.86282 -1.30849 -2.86603 102.882 -45.873 -80.9843 24.5412 -6.86412 26.4314 -5.41348 -4.36084 -46.4617 -5.50027 -0.104854 -3.6837 -86.8833 -46.6192 82.6136 7.63972 -7.01307 -21.472 -7.04245 -26.6069 -21.1737 15.1384 -0.980172 -10.2588 0.60048 10.3595 -18.0152 -12.238 9.71042 40.4786 
14.276 74.4811 10.4329 96.2081 -4.46262 108.354 173.534 48.9483 95.06 -91.7059 24.5882 2.22455 73.1933 13.4498 24.0794 33.3419 -1.07567 -5.37446 175.471 27.8422 74.1335 -50.3427 -19.0635 -3.56231 48.208 7.44533 18.8815 69.1262 -6.48083 -2.38725 -1.18482 11.2651 -91.769 4.28299 -3.08301 -3.45318 -7.38843 -3.23193 -3.31425 -29.9007 -1.90364 -4.21903 -9.88805 -1.90365 -4.21905 102.929 -46.3355 -80.9172 22.6211 -8.41383 25.099 -13.6489 -15.6091 -44.7018 -1.12679 -0.0272284 -4.30152 -87.1361 -44.2022 81.7631 5.592 -13.2928 -33.9651 -7.22058 -15.1875 -45.4338 9.234 -1.02381 -13.4838 8.4885 12.3036 -21.8004 -15.0747 11.8474 47.6149 
12.6134 74.1976 19.3295 90.1461 4.61962 107.419 -168.2 54.4689 83.7039 -87.3169 21.8081 -0.403353 71.7884 10.7225 18.9526 31.5672 -0.466783 -4.41409 173.45 33.1118 76.9846 -62.9733 -14.8513 -1.70927 65.6656 0.120427 15.6227 63.8673 -6.2148 -5.7982 -1.27459 11.6313 -92.3462 3.51692 -3.48303 -4.59751 -8.15695 -3.68182 -4.44005 -30.6415 -1.94264 -5.42956 -10.6288 -1.94263 -5.42955 102.192 -48.0877 -82.1192 10.8059 -4.84345 4.62352 -11.2819 -28.955 -28.7964 -0.720981 -0.0155002 -2.14224 -88.4097 -43.4145 79.5619 -3.34807 -13.3873 -42.519 -3.94574 -10.4313 -55.1031 10.1441 -1.20746 -14.5271 11.6435 14.0064 -22.627 -13.9088 14.4472 52.2658 
12.5601 75.7315 24.8506 85.1762 5.89285 106.26 -151.755 53.564 73.0707 -82.1032 14.3942 -2.87603 68.4818 8.68714 17.6611 37.343 -2.40418 -7.43681 173.875 38.7263 79.0478 -65.8816 -12.1448 -1.19016 64.0971 1.22065 16.8072 67.2831 -5.79395 -0.844292 -1.1948 11.4715 -92.3616 3.83816 -3.33598 -4.61904 -7.83618 -3.53582 -4.46805 -30.3182 -1.79588 -5.40598 -10.3055 -1.79588 -5.40598 102.077 -49.8995 -82.3031 5.13652 2.98796 -19.9088 1.92085 -33.0734 -5.1247 -7.87609 -0.439961 1.40745 -90.5238 -48.0157 77.2582 -1.87951 -5.54808 -40.1884 -2.87978 -10.9928 -45.0577 8.66736 -0.997042 -13.7297 9.32292 15.685 -21.9394 -13.8276 15.4951 52.5817 
13.4805 76.6699 28.3769 83.9442 5.28728 103.945 -153.885 54.8935 73.4054 -83.8249 13.2051 -2.12864 67.9708 9.6426 21.5015 44.7481 -5.14213 -5.94217 175.324 39.7408 79.6722 -67.6488 -9.48667 -1.80144 69.7733 -1.04339 17.159 63.4541 -5.45862 -2.21368 -0.713711 11.5302 -92.005 3.75674 -2.23015 -3.922 -7.91792 -2.40044 -3.82023 -30.4094 -0.949657 -4.40998 -10.3967 -0.949631 -4.40997 100.582 -44.6091 -84.8105 11.3418 2.95602 -31.5142 0.444132 -32.2604 -6.29856 -6.82564 -0.405453 1.89445 -91.6178 -51.4778 76.4217 -2.59781 -3.26362 -41.5837 -0.25521 -12.4317 -15.804 14.6854 -0.977827 -10.265 9.28322 16.5134 -20.2525 -10.511 17.5429 51.8142 
15.2912 77.8047 29.3664 84.0373 3.80705 103.276 -159.082 56.138 78.1709 -84.0947 10.687 -1.20376 70.0245 11.1378 21.5253 48.1314 -6.06452 -1.25477 177.551 37.3216 79.3315 -65.3438 -9.60792 -2.90879 71.1379 0.16935 23.7348 61.1919 -4.55332 1.04119 -0.241052 11.7387 -91.8523 3.36229 -1.21819 -3.62963 -8.31299 -1.37668 -3.57261 -30.8077 -0.0719122 -3.82769 -10.795 -0.071931 -3.82769 99.5457 -39.8773 -86.8189 14.1814 0.937109 -43.9942 -3.02742 -30.8234 -13.0531 -8.54161 -0.485908 1.53009 -93.3321 -56.3936 75.133 -4.00983 -3.09341 -35.8801 1.03635 -20.3766 1.42504 17.3227 -0.804612 -8.3535 11.2121 17.46 -16.6002 -7.71486 19.2005 51.2248 
17.91 78.3181 28.4171 81.0752 2.15939 103.407 -158.117 60.3166 78.5619 -83.4966 7.46261 -1.04644 71.2069 12.0807 21.7055 51.1511 -6.76786 1.19775 179.077 35.0081 78.5191 -60.0749 -11.5936 -3.79805 76.5047 -1.0629 26.3522 59.9921 -3.81898 4.19702 0.05198 11.4462 -91.6536 3.96247 -0.562273 -3.23758 -7.71229 -0.704126 -3.20975 -30.2154 0.436213 -3.25693 -10.2028 0.436196 -3.25694 99.2242 -38.7697 -87.4726 17.271 -1.40276 -52.6291 -12.9318 -28.1352 -30.4827 -6.98564 -0.301281 -0.277884 -93.0551 -60.1278 76.3557 -5.20248 -0.919909 -22.1047 -0.107644 -17.8204 1.96769e-005 10.762 -0.569353 -8.66087 18.6488 17.6076 -19.0382 -10.1995 19.9416 51.9036 
22.1703 79.2947 26.079 78.4102 4.22857 105.923 -159.147 63.4096 80.8713 -83.7739 1.20947 -0.500279 71.4141 12.9922 23.1669 53.2385 -7.36224 1.47576 176.87 29.3248 80.0578 -52.2346 -12.944 -2.94542 75.6366 -1.42806 23.5576 64.1599 -4.31452 4.04129 0.425876 10.9699 -91.6709 4.92441 0.163945 -3.28099 -6.75069 0.0194492 -3.28503 -29.2557 1.14193 -3.08042 -9.24304 1.14196 -3.08041 99.0515 -38.7763 -87.7844 14.7675 -6.72661 -50.0684 -15.2166 -16.6464 -46.9064 -10.1303 -0.221315 -2.76051 -90.1874 -57.3915 79.6995 -10.6503 0.754395 -11.1264 0.636052 -13.1227 0.000767273 7.84419 -0.297997 -6.69071 31.3491 14.9884 -22.6177 -17.6162 17.6757 49.9237 
